<svg id="visual" viewBox="0 0 675 900" width="675" height="900" xmlns="http://www.w3.org/2000/svg" xmlns:xlink="http://www.w3.org/1999/xlink" version="1.1"><rect x="0" y="0" width="675" height="900" fill="#001220"></rect><path d="M0 737L16 734.5C32 732 64 727 96.2 724.8C128.3 722.7 160.7 723.3 192.8 730.2C225 737 257 750 289.2 746.5C321.3 743 353.7 723 385.8 706.7C418 690.3 450 677.7 482.2 667.7C514.3 657.7 546.7 650.3 578.8 660.7C611 671 643 699 659 713L675 727L675 901L659 901C643 901 611 901 578.8 901C546.7 901 514.3 901 482.2 901C450 901 418 901 385.8 901C353.7 901 321.3 901 289.2 901C257 901 225 901 192.8 901C160.7 901 128.3 901 96.2 901C64 901 32 901 16 901L0 901Z" fill="#fa7268"></path><path d="M0 720L16 725.7C32 731.3 64 742.7 96.2 739.2C128.3 735.7 160.7 717.3 192.8 706.3C225 695.3 257 691.7 289.2 710.5C321.3 729.3 353.7 770.7 385.8 790.5C418 810.3 450 808.7 482.2 798.7C514.3 788.7 546.7 770.3 578.8 753.8C611 737.3 643 722.7 659 715.3L675 708L675 901L659 901C643 901 611 901 578.8 901C546.7 901 514.3 901 482.2 901C450 901 418 901 385.8 901C353.7 901 321.3 901 289.2 901C257 901 225 901 192.8 901C160.7 901 128.3 901 96.2 901C64 901 32 901 16 901L0 901Z" fill="#e34c67"></path><path d="M0 816L16 810.8C32 805.7 64 795.3 96.2 793.8C128.3 792.3 160.7 799.7 192.8 799.7C225 799.7 257 792.3 289.2 791C321.3 789.7 353.7 794.3 385.8 805.2C418 816 450 833 482.2 826.3C514.3 819.7 546.7 789.3 578.8 777.2C611 765 643 771 659 774L675 777L675 901L659 901C643 901 611 901 578.8 901C546.7 901 514.3 901 482.2 901C450 901 418 901 385.8 901C353.7 901 321.3 901 289.2 901C257 901 225 901 192.8 901C160.7 901 128.3 901 96.2 901C64 901 32 901 16 901L0 901Z" fill="#c62368"></path></svg>