<svg id="visual" viewBox="0 0 450 900" width="450" height="900" xmlns="http://www.w3.org/2000/svg" xmlns:xlink="http://www.w3.org/1999/xlink" version="1.1"><rect x="0" y="0" width="450" height="900" fill="#513252"></rect><path d="M0 605L64 605L64 654L129 654L129 607L193 607L193 621L257 621L257 706L321 706L321 689L386 689L386 644L450 644L450 631L450 901L450 901L386 901L386 901L321 901L321 901L257 901L257 901L193 901L193 901L129 901L129 901L64 901L64 901L0 901Z" fill="#ca4e79"></path><path d="M0 690L64 690L64 704L129 704L129 765L193 765L193 782L257 782L257 735L321 735L321 705L386 705L386 751L450 751L450 700L450 901L450 901L386 901L386 901L321 901L321 901L257 901L257 901L193 901L193 901L129 901L129 901L64 901L64 901L0 901Z" fill="#a24775"></path><path d="M0 810L64 810L64 789L129 789L129 800L193 800L193 850L257 850L257 783L321 783L321 841L386 841L386 849L450 849L450 773L450 901L450 901L386 901L386 901L321 901L321 901L257 901L257 901L193 901L193 901L129 901L129 901L64 901L64 901L0 901Z" fill="#7a4069"></path></svg>