<svg id="visual" viewBox="0 0 900 600" width="900" height="600" xmlns="http://www.w3.org/2000/svg" xmlns:xlink="http://www.w3.org/1999/xlink" version="1.1"><rect x="0" y="0" width="900" height="600" fill="#513252"></rect><path d="M0 415L18.8 403.8C37.7 392.7 75.3 370.3 112.8 360.5C150.3 350.7 187.7 353.3 225.2 368.2C262.7 383 300.3 410 337.8 420.8C375.3 431.7 412.7 426.3 450.2 423.3C487.7 420.3 525.3 419.7 562.8 413.5C600.3 407.3 637.7 395.7 675.2 391C712.7 386.3 750.3 388.7 787.8 383.5C825.3 378.3 862.7 365.7 881.3 359.3L900 353L900 601L881.3 601C862.7 601 825.3 601 787.8 601C750.3 601 712.7 601 675.2 601C637.7 601 600.3 601 562.8 601C525.3 601 487.7 601 450.2 601C412.7 601 375.3 601 337.8 601C300.3 601 262.7 601 225.2 601C187.7 601 150.3 601 112.8 601C75.3 601 37.7 601 18.8 601L0 601Z" fill="#ca4e79"></path><path d="M0 436L18.8 439.7C37.7 443.3 75.3 450.7 112.8 442.3C150.3 434 187.7 410 225.2 398.8C262.7 387.7 300.3 389.3 337.8 397C375.3 404.7 412.7 418.3 450.2 423.8C487.7 429.3 525.3 426.7 562.8 425.5C600.3 424.3 637.7 424.7 675.2 417.8C712.7 411 750.3 397 787.8 398.2C825.3 399.3 862.7 415.7 881.3 423.8L900 432L900 601L881.3 601C862.7 601 825.3 601 787.8 601C750.3 601 712.7 601 675.2 601C637.7 601 600.3 601 562.8 601C525.3 601 487.7 601 450.2 601C412.7 601 375.3 601 337.8 601C300.3 601 262.7 601 225.2 601C187.7 601 150.3 601 112.8 601C75.3 601 37.7 601 18.8 601L0 601Z" fill="#bd4c78"></path><path d="M0 427L18.8 424.5C37.7 422 75.3 417 112.8 422.5C150.3 428 187.7 444 225.2 447.3C262.7 450.7 300.3 441.3 337.8 437C375.3 432.7 412.7 433.3 450.2 430.3C487.7 427.3 525.3 420.7 562.8 428.2C600.3 435.7 637.7 457.3 675.2 464.2C712.7 471 750.3 463 787.8 452.3C825.3 441.7 862.7 428.3 881.3 421.7L900 415L900 601L881.3 601C862.7 601 825.3 601 787.8 601C750.3 601 712.7 601 675.2 601C637.7 601 600.3 601 562.8 601C525.3 601 487.7 601 450.2 601C412.7 601 375.3 601 337.8 601C300.3 601 262.7 601 225.2 601C187.7 601 150.3 601 112.8 601C75.3 601 37.7 601 18.8 601L0 601Z" fill="#af4977"></path><path d="M0 502L18.8 503C37.7 504 75.3 506 112.8 498.3C150.3 490.7 187.7 473.3 225.2 463.8C262.7 454.3 300.3 452.7 337.8 453.2C375.3 453.7 412.7 456.3 450.2 457.2C487.7 458 525.3 457 562.8 460.3C600.3 463.7 637.7 471.3 675.2 479.2C712.7 487 750.3 495 787.8 498.8C825.3 502.7 862.7 502.3 881.3 502.2L900 502L900 601L881.3 601C862.7 601 825.3 601 787.8 601C750.3 601 712.7 601 675.2 601C637.7 601 600.3 601 562.8 601C525.3 601 487.7 601 450.2 601C412.7 601 375.3 601 337.8 601C300.3 601 262.7 601 225.2 601C187.7 601 150.3 601 112.8 601C75.3 601 37.7 601 18.8 601L0 601Z" fill="#a24775"></path><path d="M0 518L18.8 515C37.7 512 75.3 506 112.8 504.3C150.3 502.7 187.7 505.3 225.2 508.7C262.7 512 300.3 516 337.8 515.5C375.3 515 412.7 510 450.2 511.7C487.7 513.3 525.3 521.7 562.8 520C600.3 518.3 637.7 506.7 675.2 498.8C712.7 491 750.3 487 787.8 486.2C825.3 485.3 862.7 487.7 881.3 488.8L900 490L900 601L881.3 601C862.7 601 825.3 601 787.8 601C750.3 601 712.7 601 675.2 601C637.7 601 600.3 601 562.8 601C525.3 601 487.7 601 450.2 601C412.7 601 375.3 601 337.8 601C300.3 601 262.7 601 225.2 601C187.7 601 150.3 601 112.8 601C75.3 601 37.7 601 18.8 601L0 601Z" fill="#944572"></path><path d="M0 553L18.8 552.3C37.7 551.7 75.3 550.3 112.8 548.7C150.3 547 187.7 545 225.2 543C262.7 541 300.3 539 337.8 539.7C375.3 540.3 412.7 543.7 450.2 545.7C487.7 547.7 525.3 548.3 562.8 549.2C600.3 550 637.7 551 675.2 547.3C712.7 543.7 750.3 535.3 787.8 529.8C825.3 524.3 862.7 521.7 881.3 520.3L900 519L900 601L881.3 601C862.7 601 825.3 601 787.8 601C750.3 601 712.7 601 675.2 601C637.7 601 600.3 601 562.8 601C525.3 601 487.7 601 450.2 601C412.7 601 375.3 601 337.8 601C300.3 601 262.7 601 225.2 601C187.7 601 150.3 601 112.8 601C75.3 601 37.7 601 18.8 601L0 601Z" fill="#87426e"></path><path d="M0 547L18.8 549.7C37.7 552.3 75.3 557.7 112.8 560.7C150.3 563.7 187.7 564.3 225.2 566.5C262.7 568.7 300.3 572.3 337.8 573C375.3 573.7 412.7 571.3 450.2 569C487.7 566.7 525.3 564.3 562.8 563.8C600.3 563.3 637.7 564.7 675.2 562.7C712.7 560.7 750.3 555.3 787.8 555C825.3 554.7 862.7 559.3 881.3 561.7L900 564L900 601L881.3 601C862.7 601 825.3 601 787.8 601C750.3 601 712.7 601 675.2 601C637.7 601 600.3 601 562.8 601C525.3 601 487.7 601 450.2 601C412.7 601 375.3 601 337.8 601C300.3 601 262.7 601 225.2 601C187.7 601 150.3 601 112.8 601C75.3 601 37.7 601 18.8 601L0 601Z" fill="#7a4069"></path></svg>